<svg width="64" height="64" viewBox="0 0 64 64" fill="none" xmlns="http://www.w3.org/2000/svg">
<rect width="64" height="64" rx="6" fill="#0082D5"/>
<g clip-path="url(#clip0_44_218)">
<path d="M56.5796 35.7143C56.5796 33.885 55.1081 32.4021 53.2928 32.4021C51.4775 32.4021 50.0059 33.885 50.0059 35.7143V43.9921C50.0059 45.8214 51.4775 47.3043 53.2928 47.3043C55.1081 47.3043 56.5796 45.8214 56.5796 43.9921V35.7143Z" fill="white"/>
<path d="M13.9942 39.8376C13.9942 38.0083 12.5226 36.5254 10.7073 36.5254C8.892 36.5254 7.42041 38.0083 7.42041 39.8376V43.9922C7.42041 45.8214 8.892 47.3043 10.7073 47.3043C12.5226 47.3043 13.9942 45.8214 13.9942 43.9922V39.8376Z" fill="white"/>
<path d="M42.6977 16.7009C40.8719 16.7009 39.391 18.3179 39.391 20.3135L39.4376 37.7464C39.4376 38.9952 38.5117 40.0043 37.3687 40.0043C36.2257 40.0043 35.2998 38.9917 35.2998 37.7464V31.9123C35.255 29.9601 33.7947 28.3917 31.9983 28.3917C30.3105 28.3917 28.9209 29.7812 28.7226 31.558V37.7464C28.7226 38.9952 27.7968 40.0043 26.6538 40.0043C25.5107 40.0043 24.5849 38.9917 24.5849 37.7464L24.609 24.7773C24.609 22.7816 23.1281 21.1646 21.3023 21.1646C19.4765 21.1646 17.9956 22.7816 17.9956 24.7773V44.2701C17.9956 45.9479 19.2404 47.3078 20.7748 47.3078H43.2235C44.7579 47.3078 46.0027 45.9479 46.0027 44.2701C46.0027 44.2562 46.0027 44.2423 46.0027 44.2284C46.0027 44.2145 46.0027 20.3118 46.0027 20.3118C46.0027 18.3127 44.5235 16.7009 42.6977 16.7009Z" fill="white"/>
</g>
<defs>
<clipPath id="clip0_44_218">
<rect width="49.1594" height="30.6087" fill="white" transform="translate(7.42041 16.6956)"/>
</clipPath>
</defs>
</svg>
