<?xml version="1.0" encoding="UTF-8" standalone="no"?>
<!-- Created with Inkscape (http://www.inkscape.org/) -->

<svg
   width="1300"
   height="520"
   viewBox="0 0 343.95832 137.58333"
   version="1.1"
   id="svg7055"
   inkscape:version="1.2.1 (9c6d41e410, 2022-07-14)"
   sodipodi:docname="d.svg"
   inkscape:export-filename="d.png"
   inkscape:export-xdpi="96"
   inkscape:export-ydpi="96"
   xmlns:inkscape="http://www.inkscape.org/namespaces/inkscape"
   xmlns:sodipodi="http://sodipodi.sourceforge.net/DTD/sodipodi-0.dtd"
   xmlns="http://www.w3.org/2000/svg"
   xmlns:svg="http://www.w3.org/2000/svg">
  <sodipodi:namedview
     id="namedview7057"
     pagecolor="#ffffff"
     bordercolor="#666666"
     borderopacity="1.0"
     inkscape:showpageshadow="2"
     inkscape:pageopacity="0.0"
     inkscape:pagecheckerboard="0"
     inkscape:deskcolor="#d1d1d1"
     inkscape:document-units="mm"
     showgrid="false"
     inkscape:zoom="0.84096521"
     inkscape:cx="757.46296"
     inkscape:cy="297.27746"
     inkscape:window-width="1920"
     inkscape:window-height="1017"
     inkscape:window-x="-8"
     inkscape:window-y="-8"
     inkscape:window-maximized="1"
     inkscape:current-layer="layer1" />
  <defs
     id="defs7052" />
  <g
     inkscape:label="Layer 1"
     inkscape:groupmode="layer"
     id="layer1">
    <rect
       style="fill:#ffffff;stroke-width:1.83782"
       id="rect444"
       width="343.95834"
       height="137.58333"
       x="0"
       y="0" />
    <circle
       style="display:none;fill:none;stroke:#185cff;stroke-width:2.51801;stroke-dasharray:none;stroke-opacity:1"
       id="path176"
       cx="68.915901"
       cy="68.815819"
       r="65.516068" />
    <path
       style="display:inline;fill:#185cff;fill-opacity:1;stroke:none;stroke-width:0.379624px;stroke-linecap:butt;stroke-linejoin:miter;stroke-opacity:1"
       d="m 25.216625,50.555815 c -3.212754,19.389229 3.681865,29.914501 6.615449,32.962271 11.026718,11.455902 29.361571,12.497588 38.984299,-3.002897 5.580556,-10.281434 -5.870701,-19.076634 -11.974479,-20.16184 -9.180893,-1.632301 -17.746186,2.566989 -19.609747,5.706201 -6.12312,-8.371224 -1.712921,-21.640534 5.105611,-26.558386 5.423265,-3.911509 16.465549,-6.411618 22.662434,-2.673281 0.443136,-8.327038 -9.72384,-16.69063 -9.72384,-16.69063 27.823931,-2.824132 44.019188,12.760829 45.436108,31.271004 4.12265,-5.191642 6.28669,-11.098322 5.01425,-15.740587 21.44592,15.326081 13.55754,47.53458 10.60323,53.274529 C 115.86051,93.74008 101.60359,121.87987 70.189324,122.14146 38.77506,122.40307 22.947826,95.431983 20.530446,91.156505 16.621481,84.242926 11.58806,61.89215 25.216625,50.555815 Z"
       id="path5425"
       sodipodi:nodetypes="cscscsccccsssc" />
    <path
       style="display:inline;fill:#ffffff;fill-opacity:1;stroke:none;stroke-width:0.361875px;stroke-linecap:butt;stroke-linejoin:miter;stroke-opacity:1"
       d="m 78.264266,60.518748 c 0,0 14.08544,11.439901 12.049737,24.793141 -1.136842,7.457171 -11.300921,14.824331 -26.791462,19.118811 9.810961,4.52813 26.877513,2.36826 36.180114,-7.381679 11.120885,-11.090347 11.004515,-29.434014 5.642105,-33.959115 -0.4014,3.623606 -1.21468,6.982508 -3.45885,8.134443 -1.13204,-8.804709 -7.043767,-15.093782 -12.452373,-16.603165 1.509383,3.270327 4.761741,8.181789 3.000797,11.703676 -3.872421,-5.699629 -14.170068,-5.806112 -14.170068,-5.806112 z"
       id="path6257"
       sodipodi:nodetypes="csccccccc" />
    <rect
       style="fill:#185cff;stroke-width:1.87054"
       id="rect293"
       width="190"
       height="60"
       x="140"
       y="11" />
    <rect
       style="fill:#ffffff;stroke-width:1.87054"
       id="rect293-6"
       width="190"
       height="60"
       x="140"
       y="71" />
    <text
       xml:space="preserve"
       style="font-size:70.5556px;line-height:1.25;font-family:'Tw Cen MT';-inkscape-font-specification:'Tw Cen MT';fill:#185cff;fill-opacity:1;stroke-width:0.264583"
       x="148.3808"
       y="123.34114"
       id="text12131"><tspan
         sodipodi:role="line"
         id="tspan12129"
         style="fill:#185cff;fill-opacity:1;stroke-width:0.264583"
         x="148.3808"
         y="123.34114">Wave</tspan></text>
    <text
       xml:space="preserve"
       style="font-size:69.554px;line-height:1.25;font-family:'Tw Cen MT';-inkscape-font-specification:'Tw Cen MT';fill:#ffffff;fill-opacity:1;stroke-width:1.73885"
       x="145.62473"
       y="63.578644"
       id="text12002"><tspan
         sodipodi:role="line"
         id="tspan12000"
         style="fill:#ffffff;fill-opacity:1;stroke-width:1.73885"
         x="145.62473"
         y="63.578644"><tspan
   style="font-size:70.5556px;fill:#ffffff"
   id="tspan12125">UW</tspan> </tspan></text>
  </g>
</svg>
